<svg width="20" height="21" viewBox="0 0 20 21" fill="none" xmlns="http://www.w3.org/2000/svg">
<path d="M5.8 0.75H14.2C17.4 0.75 20 3.35 20 6.55V14.95C20 16.4883 19.3889 17.9635 18.3012 19.0512C17.2135 20.1389 15.7383 20.75 14.2 20.75H5.8C2.6 20.75 0 18.15 0 14.95V6.55C0 5.01174 0.61107 3.53649 1.69878 2.44878C2.78649 1.36107 4.26174 0.75 5.8 0.75ZM5.6 2.75C4.64522 2.75 3.72955 3.12928 3.05442 3.80442C2.37928 4.47955 2 5.39522 2 6.35V15.15C2 17.14 3.61 18.75 5.6 18.75H14.4C15.3548 18.75 16.2705 18.3707 16.9456 17.6956C17.6207 17.0205 18 16.1048 18 15.15V6.35C18 4.36 16.39 2.75 14.4 2.75H5.6ZM15.25 4.25C15.5815 4.25 15.8995 4.3817 16.1339 4.61612C16.3683 4.85054 16.5 5.16848 16.5 5.5C16.5 5.83152 16.3683 6.14946 16.1339 6.38388C15.8995 6.6183 15.5815 6.75 15.25 6.75C14.9185 6.75 14.6005 6.6183 14.3661 6.38388C14.1317 6.14946 14 5.83152 14 5.5C14 5.16848 14.1317 4.85054 14.3661 4.61612C14.6005 4.3817 14.9185 4.25 15.25 4.25ZM10 5.75C11.3261 5.75 12.5979 6.27678 13.5355 7.21447C14.4732 8.15215 15 9.42392 15 10.75C15 12.0761 14.4732 13.3479 13.5355 14.2855C12.5979 15.2232 11.3261 15.75 10 15.75C8.67392 15.75 7.40215 15.2232 6.46447 14.2855C5.52678 13.3479 5 12.0761 5 10.75C5 9.42392 5.52678 8.15215 6.46447 7.21447C7.40215 6.27678 8.67392 5.75 10 5.75ZM10 7.75C9.20435 7.75 8.44129 8.06607 7.87868 8.62868C7.31607 9.19129 7 9.95435 7 10.75C7 11.5456 7.31607 12.3087 7.87868 12.8713C8.44129 13.4339 9.20435 13.75 10 13.75C10.7956 13.75 11.5587 13.4339 12.1213 12.8713C12.6839 12.3087 13 11.5456 13 10.75C13 9.95435 12.6839 9.19129 12.1213 8.62868C11.5587 8.06607 10.7956 7.75 10 7.75Z" fill="#262E27"/>
</svg>
