<svg width="20" height="21" viewBox="0 0 20 21" fill="none" xmlns="http://www.w3.org/2000/svg">
<path d="M18 14.5V8.5H20V14.5C20 15.0304 19.7893 15.5391 19.4142 15.9142C19.0391 16.2893 18.5304 16.5 18 16.5H6C5.46957 16.5 4.96086 16.2893 4.58579 15.9142C4.21071 15.5391 4 15.0304 4 14.5V2.5C4 1.39 4.89 0.5 6 0.5H14V2.5H6V14.5H18ZM8.91 5.58L12 8.67L18.59 2.08L20 3.5L12 11.5L7.5 7L8.91 5.58ZM14 18.5V20.5H2C1.46957 20.5 0.960859 20.2893 0.585786 19.9142C0.210714 19.5391 0 19.0304 0 18.5V5.5H2V18.5H14Z" fill="#028A0F"/>
</svg>
