<svg width="18" height="19" viewBox="0 0 18 19" fill="none" xmlns="http://www.w3.org/2000/svg">
<path d="M16 0.75C16.5304 0.75 17.0391 0.960714 17.4142 1.33579C17.7893 1.71086 18 2.21957 18 2.75V16.75C18 17.2804 17.7893 17.7891 17.4142 18.1642C17.0391 18.5393 16.5304 18.75 16 18.75H2C1.46957 18.75 0.960859 18.5393 0.585786 18.1642C0.210714 17.7891 0 17.2804 0 16.75V2.75C0 2.21957 0.210714 1.71086 0.585786 1.33579C0.960859 0.960714 1.46957 0.75 2 0.75H16ZM15.5 16.25V10.95C15.5 10.0854 15.1565 9.2562 14.5452 8.64483C13.9338 8.03346 13.1046 7.69 12.24 7.69C11.39 7.69 10.4 8.21 9.92 8.99V7.88H7.13V16.25H9.92V11.32C9.92 10.55 10.54 9.92 11.31 9.92C11.6813 9.92 12.0374 10.0675 12.2999 10.3301C12.5625 10.5926 12.71 10.9487 12.71 11.32V16.25H15.5ZM3.88 6.31C4.32556 6.31 4.75288 6.133 5.06794 5.81794C5.383 5.50288 5.56 5.07556 5.56 4.63C5.56 3.7 4.81 2.94 3.88 2.94C3.43178 2.94 3.00193 3.11805 2.68499 3.43499C2.36805 3.75193 2.19 4.18178 2.19 4.63C2.19 5.56 2.95 6.31 3.88 6.31ZM5.27 16.25V7.88H2.5V16.25H5.27Z" fill="#262E27"/>
</svg>
