<svg width="138" height="47" viewBox="0 0 138 47" fill="none" xmlns="http://www.w3.org/2000/svg">
<path d="M11.34 31.36C11.34 30.32 11.524 29.304 11.892 28.312C12.26 27.304 12.796 26.392 13.5 25.576C14.22 24.744 15.092 24.088 16.116 23.608C17.14 23.112 18.3 22.864 19.596 22.864C21.132 22.864 22.46 23.216 23.58 23.92C24.7 24.608 25.532 25.496 26.076 26.584L23.964 28C23.644 27.312 23.236 26.768 22.74 26.368C22.26 25.968 21.732 25.688 21.156 25.528C20.596 25.368 20.044 25.288 19.5 25.288C18.604 25.288 17.82 25.472 17.148 25.84C16.476 26.192 15.908 26.664 15.444 27.256C14.996 27.848 14.652 28.512 14.412 29.248C14.188 29.984 14.076 30.72 14.076 31.456C14.076 32.272 14.212 33.064 14.484 33.832C14.756 34.584 15.132 35.256 15.612 35.848C16.108 36.424 16.692 36.88 17.364 37.216C18.036 37.552 18.772 37.72 19.572 37.72C20.116 37.72 20.684 37.624 21.276 37.432C21.868 37.24 22.412 36.944 22.908 36.544C23.42 36.128 23.82 35.584 24.108 34.912L26.34 36.184C25.988 37.032 25.436 37.752 24.684 38.344C23.948 38.936 23.116 39.384 22.188 39.688C21.276 39.992 20.372 40.144 19.476 40.144C18.276 40.144 17.18 39.896 16.188 39.4C15.196 38.888 14.34 38.216 13.62 37.384C12.9 36.536 12.34 35.592 11.94 34.552C11.54 33.496 11.34 32.432 11.34 31.36ZM27.5783 36.328C27.5783 35.528 27.8023 34.832 28.2503 34.24C28.7143 33.632 29.3463 33.168 30.1463 32.848C30.9463 32.512 31.8743 32.344 32.9303 32.344C33.4903 32.344 34.0583 32.384 34.6343 32.464C35.2263 32.544 35.7463 32.672 36.1943 32.848V32.056C36.1943 31.176 35.9303 30.488 35.4023 29.992C34.8743 29.496 34.1143 29.248 33.1223 29.248C32.4183 29.248 31.7543 29.376 31.1303 29.632C30.5063 29.872 29.8423 30.216 29.1383 30.664L28.2503 28.888C29.0823 28.328 29.9143 27.912 30.7463 27.64C31.5943 27.368 32.4823 27.232 33.4103 27.232C35.0903 27.232 36.4103 27.68 37.3703 28.576C38.3463 29.456 38.8343 30.712 38.8343 32.344V37.024C38.8343 37.328 38.8823 37.544 38.9783 37.672C39.0903 37.8 39.2743 37.872 39.5303 37.888V40C39.2903 40.048 39.0743 40.08 38.8823 40.096C38.6903 40.112 38.5303 40.12 38.4023 40.12C37.8423 40.12 37.4183 39.984 37.1303 39.712C36.8423 39.44 36.6743 39.12 36.6263 38.752L36.5543 38.032C36.0103 38.736 35.3143 39.28 34.4663 39.664C33.6183 40.048 32.7623 40.24 31.8983 40.24C31.0663 40.24 30.3223 40.072 29.6663 39.736C29.0103 39.384 28.4983 38.912 28.1303 38.32C27.7623 37.728 27.5783 37.064 27.5783 36.328ZM35.5703 37.096C35.7623 36.888 35.9143 36.68 36.0263 36.472C36.1383 36.264 36.1943 36.08 36.1943 35.92V34.48C35.7463 34.304 35.2743 34.176 34.7783 34.096C34.2823 34 33.7943 33.952 33.3143 33.952C32.3543 33.952 31.5703 34.144 30.9623 34.528C30.3703 34.912 30.0742 35.44 30.0742 36.112C30.0742 36.48 30.1703 36.832 30.3623 37.168C30.5703 37.504 30.8583 37.776 31.2263 37.984C31.6103 38.192 32.0823 38.296 32.6423 38.296C33.2183 38.296 33.7703 38.184 34.2983 37.96C34.8263 37.736 35.2503 37.448 35.5703 37.096ZM49.0931 29.728C48.0691 29.744 47.1571 29.976 46.3571 30.424C45.5731 30.872 45.0131 31.504 44.6771 32.32V40H42.0371V27.448H44.4851V30.256C44.9171 29.392 45.4851 28.704 46.1891 28.192C46.8931 27.664 47.6371 27.376 48.4211 27.328C48.5811 27.328 48.7091 27.328 48.8051 27.328C48.9171 27.328 49.0131 27.336 49.0931 27.352V29.728ZM56.4673 40.24C55.4913 40.24 54.6033 40.072 53.8033 39.736C53.0193 39.384 52.3393 38.912 51.7633 38.32C51.1873 37.712 50.7393 37.024 50.4193 36.256C50.1153 35.472 49.9633 34.64 49.9633 33.76C49.9633 32.576 50.2353 31.496 50.7793 30.52C51.3233 29.528 52.0833 28.736 53.0593 28.144C54.0353 27.536 55.1793 27.232 56.4913 27.232C57.8033 27.232 58.9313 27.536 59.8753 28.144C60.8353 28.736 61.5793 29.52 62.1073 30.496C62.6353 31.472 62.8993 32.52 62.8993 33.64C62.8993 33.832 62.8913 34.016 62.8753 34.192C62.8593 34.352 62.8433 34.488 62.8273 34.6H52.7713C52.8193 35.336 53.0193 35.984 53.3713 36.544C53.7393 37.088 54.2033 37.52 54.7633 37.84C55.3233 38.144 55.9233 38.296 56.5633 38.296C57.2673 38.296 57.9313 38.12 58.5553 37.768C59.1953 37.416 59.6273 36.952 59.8513 36.376L62.1073 37.024C61.8353 37.632 61.4193 38.184 60.8593 38.68C60.3153 39.16 59.6673 39.544 58.9153 39.832C58.1633 40.104 57.3473 40.24 56.4673 40.24ZM52.6993 32.848H60.2833C60.2353 32.128 60.0273 31.496 59.6593 30.952C59.3073 30.392 58.8513 29.96 58.2913 29.656C57.7473 29.336 57.1393 29.176 56.4673 29.176C55.8113 29.176 55.2033 29.336 54.6433 29.656C54.0993 29.96 53.6513 30.392 53.2993 30.952C52.9473 31.496 52.7473 32.128 52.6993 32.848ZM85.3104 22.96V40H82.5984V32.488H74.0064V40H71.3184V22.96H74.0064V30.088H82.5984V22.96H85.3104ZM94.2474 40.24C93.2554 40.24 92.3674 40.072 91.5834 39.736C90.7994 39.384 90.1194 38.904 89.5434 38.296C88.9834 37.688 88.5514 37 88.2474 36.232C87.9434 35.448 87.7914 34.616 87.7914 33.736C87.7914 32.856 87.9434 32.024 88.2474 31.24C88.5514 30.456 88.9834 29.768 89.5434 29.176C90.1194 28.568 90.7994 28.096 91.5834 27.76C92.3834 27.408 93.2714 27.232 94.2474 27.232C95.2234 27.232 96.1034 27.408 96.8874 27.76C97.6874 28.096 98.3674 28.568 98.9274 29.176C99.5034 29.768 99.9434 30.456 100.247 31.24C100.551 32.024 100.703 32.856 100.703 33.736C100.703 34.616 100.551 35.448 100.247 36.232C99.9434 37 99.5034 37.688 98.9274 38.296C98.3674 38.904 97.6874 39.384 96.8874 39.736C96.1034 40.072 95.2234 40.24 94.2474 40.24ZM90.5034 33.76C90.5034 34.56 90.6714 35.28 91.0074 35.92C91.3434 36.56 91.7914 37.064 92.3514 37.432C92.9114 37.8 93.5434 37.984 94.2474 37.984C94.9354 37.984 95.5594 37.8 96.1194 37.432C96.6954 37.048 97.1514 36.536 97.4874 35.896C97.8234 35.24 97.9914 34.52 97.9914 33.736C97.9914 32.936 97.8234 32.216 97.4874 31.576C97.1514 30.936 96.6954 30.432 96.1194 30.064C95.5594 29.68 94.9354 29.488 94.2474 29.488C93.5434 29.488 92.9114 29.68 92.3514 30.064C91.7914 30.448 91.3434 30.96 91.0074 31.6C90.6714 32.224 90.5034 32.944 90.5034 33.76ZM122.245 40H119.605V32.968C119.605 31.8 119.413 30.944 119.029 30.4C118.645 29.856 118.085 29.584 117.349 29.584C116.613 29.584 115.925 29.864 115.285 30.424C114.661 30.968 114.221 31.68 113.965 32.56V40H111.325V32.968C111.325 31.8 111.133 30.944 110.749 30.4C110.365 29.856 109.813 29.584 109.093 29.584C108.357 29.584 107.669 29.856 107.029 30.4C106.405 30.944 105.957 31.656 105.685 32.536V40H103.045V27.448H105.445V29.968C105.941 29.088 106.589 28.416 107.389 27.952C108.205 27.472 109.133 27.232 110.173 27.232C111.213 27.232 112.029 27.504 112.621 28.048C113.229 28.592 113.605 29.272 113.749 30.088C114.293 29.16 114.957 28.456 115.741 27.976C116.541 27.48 117.453 27.232 118.477 27.232C119.213 27.232 119.829 27.368 120.325 27.64C120.821 27.912 121.205 28.288 121.477 28.768C121.749 29.232 121.941 29.776 122.053 30.4C122.181 31.008 122.245 31.656 122.245 32.344V40ZM130.975 40.24C129.999 40.24 129.111 40.072 128.311 39.736C127.527 39.384 126.847 38.912 126.271 38.32C125.695 37.712 125.247 37.024 124.927 36.256C124.623 35.472 124.471 34.64 124.471 33.76C124.471 32.576 124.743 31.496 125.287 30.52C125.831 29.528 126.591 28.736 127.567 28.144C128.543 27.536 129.687 27.232 130.999 27.232C132.311 27.232 133.439 27.536 134.383 28.144C135.343 28.736 136.087 29.52 136.615 30.496C137.143 31.472 137.407 32.52 137.407 33.64C137.407 33.832 137.399 34.016 137.383 34.192C137.367 34.352 137.351 34.488 137.335 34.6H127.279C127.327 35.336 127.527 35.984 127.879 36.544C128.247 37.088 128.711 37.52 129.271 37.84C129.831 38.144 130.431 38.296 131.071 38.296C131.775 38.296 132.439 38.12 133.063 37.768C133.703 37.416 134.135 36.952 134.359 36.376L136.615 37.024C136.343 37.632 135.927 38.184 135.367 38.68C134.823 39.16 134.175 39.544 133.423 39.832C132.671 40.104 131.855 40.24 130.975 40.24ZM127.207 32.848H134.791C134.743 32.128 134.535 31.496 134.167 30.952C133.815 30.392 133.359 29.96 132.799 29.656C132.255 29.336 131.647 29.176 130.975 29.176C130.319 29.176 129.711 29.336 129.151 29.656C128.607 29.96 128.159 30.392 127.807 30.952C127.455 31.496 127.255 32.128 127.207 32.848Z" fill="#262E27"/>
<path d="M28.5 24H33L18 10.5L3 24H7.5L18 14.535L28.5 24ZM10.5 13.215V10.5H6V17.25L10.5 13.215Z" fill="url(#paint0_linear_7_2184)"/>
<defs>
<linearGradient id="paint0_linear_7_2184" x1="3" y1="10.5" x2="13.104" y2="32.9532" gradientUnits="userSpaceOnUse">
<stop stop-color="#028A0F"/>
<stop offset="1" stop-color="#90D296"/>
</linearGradient>
</defs>
</svg>
