<svg width="172" height="107" viewBox="0 0 172 107" fill="none" xmlns="http://www.w3.org/2000/svg">
<path d="M133.814 41.2464L123.892 50.4229C122.696 51.5406 121.579 52.7366 120.363 53.8347L107.402 65.3837C105.441 67.07 103.618 68.8739 101.736 70.5994C100.563 71.7587 99.3327 72.8582 98.0493 73.8935C97.3826 74.3837 96.6963 74.8347 96.0885 75.2857C95.4806 75.7366 94.5983 76.1092 93.8728 76.521C93.1473 76.9327 92.8924 76.521 93.2846 75.6974C93.9058 74.3234 94.6542 73.0105 95.5199 71.7759C97.6767 69.3249 100.206 67.1876 102.559 64.8543C104.912 62.521 107.383 60.3053 109.912 58.1092C112.912 55.4621 115.677 52.3249 118.539 49.4033L128.01 39.7563C129.971 37.7955 131.932 35.8347 133.775 33.8739C136.638 30.8151 139.657 27.7955 142.245 24.5994C144.235 22.0959 146.075 19.4769 147.755 16.7563C148.128 16.168 148.461 15.5602 148.853 14.9915C149.52 13.9719 150.03 13.3445 150.696 13.0308C151.413 13.044 152.127 13.1095 152.834 13.2268C153.245 13.2268 153.677 13.2268 154.03 13.2268C154.383 13.2268 155.03 13.619 155.304 14.4425C155.44 14.947 155.48 15.4724 155.422 15.9915C155.376 16.4956 155.223 16.9839 154.971 17.4229C151.935 22.7226 148.158 27.5622 143.755 31.7955C140.579 35.0504 137.265 38.1876 133.951 41.3641L133.814 41.2464Z" fill="#90D296"/>
<path d="M100.892 97.5603C103.383 98.0897 105.814 98.776 108.226 99.5211C109.108 99.776 110.01 99.972 110.892 100.286C113.929 101.43 116.872 102.806 119.696 104.403C120.951 105.129 122.245 105.756 123.5 106.364C124.336 106.793 125.131 107.298 125.873 107.874C126.555 108.559 127.136 109.338 127.598 110.188C127.892 110.717 127.422 111.05 126.579 111.266C125.59 111.541 124.555 111.608 123.54 111.462C123.135 111.374 122.754 111.2 122.422 110.952L121.402 110.286L119.226 109.011L114.755 106.462C112.826 105.515 110.793 104.798 108.696 104.325C106.422 103.639 104.108 103.07 101.775 102.56C100.324 102.286 98.8729 102.011 97.4023 101.815L94.069 101.443C92.9513 101.443 91.8337 101.305 90.716 101.305C88.9938 101.424 87.283 101.673 85.5984 102.05C85.2258 102.05 84.8533 102.247 84.4807 102.305C83.0886 102.305 82.5199 101.992 82.2258 100.619C82.2258 100.325 82.0297 100.05 81.9709 99.7956C81.8025 98.7783 82.3777 97.7841 83.3435 97.423C84.8953 96.7807 86.5478 96.4157 88.2258 96.3446C89.9228 96.2172 91.6269 96.2172 93.3239 96.3446C95.8705 96.5306 98.4042 96.8645 100.912 97.3446L100.892 97.5603Z" fill="#90D296"/>
<path d="M114.794 63.3834L88.9905 83.6187C85.8532 86.0893 82.8728 88.6971 79.716 91.1481C76.8564 93.1468 74.2261 95.4549 71.8728 98.0304C71.2627 98.6713 70.6074 99.2676 69.912 99.8148C69.6963 100.011 69.6571 100.03 69.5983 100.05C69.5304 100.107 69.471 100.173 69.4218 100.246C69.2258 100.501 68.9905 100.776 68.7944 101.07C67.9512 102.246 67.3042 103.697 66.4807 104.991C64.8644 107.949 63.4558 111.015 62.265 114.168L61.7944 115.364L61.2454 116.893L59.814 120.638C58.9512 123.05 58.1669 125.462 57.3238 127.285C56.7459 128.545 56.0078 129.725 55.1277 130.795C54.8005 131.261 54.3336 131.612 53.7944 131.795H53.4807C53.4807 132.05 53.4807 131.795 53.4807 131.932H53.3238C53.1363 131.872 52.9529 131.8 52.7748 131.717C52.4189 131.541 52.0889 131.316 51.7944 131.05C51.4807 130.795 51.2258 130.54 50.9512 130.305C50.694 130.01 50.4518 129.703 50.2258 129.383C49.7653 128.762 49.3524 128.106 48.9905 127.423C48.5484 126.685 48.1554 125.918 47.814 125.128C47.5264 124.253 47.2127 123.37 46.8728 122.481C46.4807 121.285 46.2454 119.854 45.8532 118.56L45.3434 116.403C45.1473 115.736 45.0101 114.776 44.912 114.442L44.3434 111.462C44.1016 110.484 43.9507 109.487 43.8924 108.481L43.461 102.756C43.37 101.857 43.3373 100.953 43.363 100.05C43.3567 99.2814 43.2911 98.5145 43.1669 97.7559C43.1669 97.3442 43.1669 97.1481 43.1669 96.8932C43.1722 96.6058 43.2761 96.3289 43.461 96.1089C44.2196 95.3626 45.3965 95.2482 46.2846 95.8344C48.0721 96.7973 49.6305 98.135 50.8532 99.7559C52.2748 101.599 53.2482 103.747 53.6963 106.03C53.8728 107.05 54.1081 107.991 54.1865 109.089V113.619C54.1865 113.972 54.1865 113.874 54.1865 113.874C54.1048 114.068 54.1048 114.287 54.1865 114.481C54.3042 114.736 54.3826 114.736 54.6375 114.481L54.8532 114.187C54.8532 114.187 54.8532 114.187 54.9512 113.952L55.0689 113.579L55.5395 112.089C56.2061 110.128 56.912 108.168 57.7356 106.207C58.2258 105.011 58.7356 103.815 59.2846 102.619C59.5787 102.011 59.8532 101.403 60.1669 100.795C60.4807 100.187 60.8728 99.6187 61.2454 99.0304C62.0539 97.7841 62.9517 96.598 63.9316 95.4814C64.2895 95.1307 64.6693 94.8033 65.0689 94.501L65.7944 93.9324C66.2797 93.5334 66.7906 93.1666 67.3238 92.8344C68.3826 92.1481 69.5003 91.5206 70.5003 90.8736L73.3042 88.1089L78.8924 83.1089L103.481 61.3834L111.069 54.6775C113.618 52.4814 116.167 50.2853 118.696 48.05C126.363 41.305 134.049 34.5206 141.324 27.4618C144.128 24.6971 146.794 21.854 149.402 18.9716C152.01 16.0893 154.52 13.0893 157.069 10.2461C158.167 8.9324 159.343 7.75593 160.559 6.55985C162.131 4.92307 163.911 3.4992 165.853 2.32456C166.46 1.97632 167.124 1.7374 167.814 1.61868C168.466 1.55419 169.123 1.55419 169.775 1.61868C170.304 1.61868 170.873 1.61868 171.245 1.61868C172.285 1.71672 172.206 5.12848 169.579 9.24613C168.638 10.8148 167.618 12.2657 166.598 13.7755L165.049 16.0304C164.52 16.7755 163.912 17.4422 163.343 18.1481C160.834 20.9585 158.324 23.6906 155.814 26.3442C153.265 28.9716 150.638 31.5599 147.971 34.1873L139.971 41.7559C131.814 49.1677 123.507 56.4291 115.049 63.5402L114.794 63.3834Z" fill="#90D296"/>
<path d="M125.089 37.4231C118.553 41.3447 112.017 45.2663 105.481 49.1878C103.108 50.6388 100.873 52.2859 98.5003 53.7172L73.4219 68.8741C69.6768 71.0898 66.0493 73.5212 62.4807 75.9329C57.9008 79.0572 53.1264 81.8865 48.1866 84.4035C46.6376 85.1682 46.4219 84.5212 47.0885 82.9525C48.1592 80.5379 49.6609 78.3386 51.5199 76.4623L54.6376 73.58L56.2062 72.1094L57.8925 70.8153C60.1408 69.0898 62.4153 67.4035 64.716 65.7564C67.0297 64.1094 69.3238 62.4427 71.7552 60.9525C74.1866 59.4623 76.6376 57.8937 79.1866 56.58C85.167 53.2466 90.8336 48.9525 96.6768 45.1486C103.108 40.9721 109.618 36.8937 116.089 32.7957L128.089 25.2466C134.108 21.3251 140.245 17.678 146.128 13.678C150.696 10.58 155.03 7.28586 159.54 4.16821C160.54 3.48194 161.5 2.75645 162.52 2.20743C166.441 -0.165121 168.402 0.0113493 169.971 1.10939C170.362 1.33648 170.735 1.59207 171.089 1.87409C171.598 2.36429 171.559 3.07017 171.089 3.99174C170.544 5.20991 169.757 6.30415 168.775 7.20743C167.03 8.99174 165.089 10.4427 163.187 12.0898C161.285 13.7368 159.265 15.2466 157.304 16.8153C153.277 19.9637 149.067 22.8707 144.696 25.5212C138.265 29.6388 131.677 33.5996 125.089 37.678V37.4231Z" fill="#90D296"/>
<path d="M111.618 104.58C109.157 103.711 106.642 103.004 104.089 102.462C103.147 102.227 102.128 102.325 101.226 102.129C99.5592 101.756 97.8729 101.619 96.1474 101.364C94.4232 101.153 92.6883 101.042 90.9513 101.031C89.4166 101.04 87.8889 101.238 86.4023 101.619C84.5496 102.272 82.602 102.617 80.6376 102.639C79.9905 102.639 79.6572 100.972 79.7944 99.3052C79.9317 97.6385 80.5984 95.913 81.7552 95.5993C86.0471 94.5258 90.5174 94.3721 94.8729 95.1483C97.4807 95.5993 100.206 95.3836 102.853 95.7562C105.757 96.179 108.623 96.8347 111.422 97.717C113.147 98.2856 114.853 98.8346 116.52 99.4817C119.069 100.403 121.481 101.658 123.951 102.737C125.923 103.476 127.842 104.348 129.696 105.344C130.069 105.619 130.481 105.854 130.834 106.168C132.108 107.403 132.245 108.129 131.696 109.305C131.601 109.56 131.49 109.809 131.363 110.05C130.699 110.842 129.617 111.146 128.638 110.815C127.755 110.619 126.794 110.521 125.912 110.364C125.075 110.189 124.264 109.906 123.5 109.521L118.794 107.56C116.418 106.532 113.983 105.648 111.5 104.913L111.618 104.58Z" fill="#90D296"/>
<path d="M155.52 44.7368C154.5 47.031 153.559 49.3643 152.559 51.6976C151.559 54.031 150.599 56.3447 149.657 58.7172C148.971 60.4231 148.52 62.227 147.853 63.9525C145.5 70.031 143.265 76.1878 141.461 82.4427C140.716 85.3447 139.971 88.0506 139.383 90.8545C139.03 92.6388 138.716 94.4427 138.442 96.227C138.036 97.9477 137.721 99.6887 137.5 101.443C137.5 102.305 137.03 102.639 136.049 101.717C134.793 100.216 133.997 98.3849 133.755 96.4427C133.663 92.5096 133.886 88.5755 134.422 84.678C135.157 80.8679 136.2 77.1236 137.54 73.4819C139.128 69.0898 140.03 64.3643 141.461 59.7565C143.049 54.7957 144.716 49.9525 146.716 45.031C147.912 42.0702 149.187 39.1486 150.442 36.1682C152.402 31.6976 154.52 27.3055 156.54 22.9133C157.363 21.2074 158.049 19.4623 158.795 17.7172C159.473 15.9389 160.286 14.215 161.226 12.5604C161.657 11.8349 161.991 11.0702 162.5 10.3643C164.344 7.75645 165.559 7.30547 167.422 8.03096C167.859 8.16856 168.285 8.33898 168.697 8.54077C169.991 9.30547 170.167 11.0114 169.402 12.9525C168.246 15.8741 167.442 19.0114 165.893 21.8937L161.736 30.9133C159.775 35.4623 157.599 40.0702 155.736 44.7761L155.52 44.7368Z" fill="#90D296"/>
<path d="M91.8337 44.5798L61.2455 57.1288C57.52 58.6582 53.9317 60.4425 50.2063 61.9719L30.5984 70.0503L28.2062 71.0699L26.9906 71.619L26.0298 72.0503L23.8925 72.8739C22.4219 73.4817 20.7749 74.168 19.0494 74.9719C18.6572 75.1484 18.2847 75.3249 17.9317 75.5209C17.7442 75.6108 17.5721 75.7299 17.4219 75.8739C17.5396 75.8739 17.7553 75.8739 17.9317 75.8739L20.1866 76.0307C21.7553 76.1288 23.3631 76.2268 24.8141 76.3837C25.2847 76.3837 25.7553 76.4817 26.2062 76.5602C26.3435 76.5602 26.3631 76.5602 26.618 76.5602L27.4023 76.7366L28.9513 77.0896C31.0441 77.5856 33.0959 78.2411 35.0886 79.0503C37.1851 79.8862 39.1628 80.9937 40.971 82.3445C42.8744 83.8342 44.327 85.8231 45.167 88.0896C45.6964 89.5013 45.4612 90.2464 45.0298 90.3837C44.5984 90.5209 43.7749 90.1288 42.5984 89.717C41.1134 89.2609 39.5627 89.0555 38.0102 89.1092C36.2615 88.9423 34.5339 88.6007 32.8533 88.0896C31.1699 87.5655 29.4537 87.1528 27.7161 86.8543C26.8141 86.6974 25.9121 86.5405 24.9906 86.4229L24.2847 86.3052L22.7553 86.0896C21.6964 86.0896 20.5788 85.9719 19.4808 85.9131L16.2455 85.5209L12.8925 85.1876L9.42194 84.9131L7.67684 84.7954C7.14802 84.7766 6.62247 84.7044 6.10821 84.5798C4.73734 84.3081 3.44038 83.7466 2.30429 82.9327C1.64818 82.5482 1.15885 81.933 0.931738 81.2072C0.800327 80.7419 0.740816 80.2592 0.755268 79.7758C0.786873 79.5022 0.786873 79.2259 0.755268 78.9523C0.715529 78.6858 0.715529 78.4149 0.755268 78.1484C0.955372 76.6598 1.64522 75.2801 2.71605 74.2268C3.76753 73.1053 5.01729 72.188 6.40233 71.5209L7.02978 71.1876L8.0886 70.9131C8.75527 70.7366 9.53958 70.5601 10.0494 70.3837L12.9121 69.168L18.4219 66.8935L21.0886 65.9131L22.3239 65.4033L22.8925 65.1876L23.2455 65.0503C32.4612 61.4033 41.5592 56.619 50.6964 52.4621L81.2651 38.8739L99.9514 30.4425C109.324 26.1288 118.912 22.168 128.108 17.619C131.677 15.8739 135.147 13.9915 138.579 12.0699L148.951 6.61897C150.481 5.81505 151.932 4.97191 153.481 4.1876C155.03 3.40328 156.089 2.89348 157.089 2.4425C157.955 2.10977 158.847 1.84748 159.755 1.65818C160.891 1.39454 162.071 1.39454 163.206 1.65818C163.647 1.73957 164.092 1.79847 164.54 1.83465C165.206 1.93269 165.167 2.81505 164.422 4.05034C163.332 5.71789 162.012 7.22298 160.5 8.52093C154.618 12.9327 148.579 17.0111 142.265 20.9327C135.794 24.5209 129.128 27.8739 122.402 31.168C117.402 33.5798 112.52 36.0307 107.304 38.2856L91.9514 44.8347L91.8337 44.5798Z" fill="#90D296"/>
</svg>
