<svg width="22" height="18" viewBox="0 0 22 18" fill="none" xmlns="http://www.w3.org/2000/svg">
<path d="M21.46 2.75C20.69 3.1 19.86 3.33 19 3.44C19.88 2.91 20.56 2.07 20.88 1.06C20.05 1.56 19.13 1.91 18.16 2.11C17.37 1.25 16.26 0.75 15 0.75C12.65 0.75 10.73 2.67 10.73 5.04C10.73 5.38 10.77 5.71 10.84 6.02C7.28 5.84 4.11 4.13 2 1.54C1.63 2.17 1.42 2.91 1.42 3.69C1.42 5.18 2.17 6.5 3.33 7.25C2.62 7.25 1.96 7.05 1.38 6.75V6.78C1.38 8.86 2.86 10.6 4.82 10.99C4.19073 11.1622 3.5301 11.1862 2.89 11.06C3.16161 11.9125 3.69354 12.6584 4.41102 13.1929C5.1285 13.7275 5.99545 14.0237 6.89 14.04C5.37363 15.2404 3.494 15.8893 1.56 15.88C1.22 15.88 0.880001 15.86 0.540001 15.82C2.44 17.04 4.7 17.75 7.12 17.75C15 17.75 19.33 11.21 19.33 5.54C19.33 5.35 19.33 5.17 19.32 4.98C20.16 4.38 20.88 3.62 21.46 2.75Z" fill="#262E27"/>
</svg>
